<svg version="1.0" xmlns="http://www.w3.org/2000/svg" width="280.000000pt" height="280.000000pt" viewBox="0 0 280.000000 280.000000" preserveAspectRatio="xMidYMid meet" style="width: 473.617px; height: auto;"> <g transform="translate(0.000000,280.000000) scale(0.050000,-0.050000)" fill="#000000" stroke="none"> <path d="M2463 5396 c-2010 -247 -3011 -2570 -1806 -4188 1185 -1589 3655 -1335 4495 463 864 1849 -669 3973 -2689 3725z m734 -209 c1594 -281 2479 -2025 1765 -3477 -890 -1809 -3473 -1831 -4379 -37 -908 1799 629 3865 2614 3514z" class=""></path> <path d="M2741 5001 l-44 -61 57 -115 c51 -104 57 -138 63 -371 10 -377 8 -382 -134 -250 -434 399 -1045 470 -1502 175 l-123 -80 45 -64 c242 -350 530 -525 857 -524 357 1 496 70 393 195 l-45 55 -79 -34 c-250 -110 -532 -40 -774 191 l-143 137 63 32 c359 186 855 86 1207 -243 l146 -138 -77 -148 c-158 -306 -234 -362 -540 -397 -425 -48 -658 -122 -757 -240 -215 -255 -299 -1325 -128 -1631 84 -149 388 -315 689 -376 l133 -27 24 -142 c60 -355 114 -385 697 -385 583 0 668 50 706 414 6 60 21 112 33 115 12 3 90 21 172 40 180 42 468 172 547 247 289 275 216 1555 -103 1798 -170 129 -766 233 -1300 227 l-187 -2 49 66 c27 36 74 115 104 175 30 61 57 113 60 116 3 4 54 -25 114 -63 333 -213 808 -110 1091 238 127 155 298 488 263 511 -296 192 -911 99 -1268 -191 l-60 -49 6 219 c12 407 -137 746 -255 580z m1316 -658 c61 -17 -91 -260 -254 -407 -225 -201 -581 -222 -809 -48 -87 67 316 367 591 441 108 29 388 37 472 14z m-607 -1173 c533 -70 577 -95 678 -392 115 -335 123 -1021 15 -1208 -78 -134 -576 -322 -718 -271 -85 31 -74 51 -122 -218 -25 -140 -56 -249 -79 -280 l-38 -51 -416 0 -416 0 -38 51 c-22 30 -53 138 -77 269 -44 247 -52 261 -125 228 -175 -79 -702 168 -755 355 -38 134 -39 816 -2 963 71 276 130 391 226 439 281 142 1216 200 1867 115z" class=""></path> <path d="M2030 2625 c-637 -280 -759 -1072 -159 -1039 533 29 950 737 594 1009 -92 70 -309 85 -435 30z m329 -135 c279 -144 -92 -723 -488 -764 -96 -10 -111 -6 -173 50 -270 241 327 887 661 714z"></path> <path d="M3108 2623 c-259 -162 -232 -502 64 -798 506 -508 1137 -147 765 438 -193 304 -621 490 -829 360z m409 -166 c199 -97 382 -351 383 -531 1 -353 -584 -203 -770 198 -147 315 59 491 387 333z"></path> <path d="M2637 1605 c-189 -236 -230 -366 -125 -406 64 -24 176 24 222 95 31 46 32 46 59 8 52 -75 165 -129 217 -106 119 54 93 158 -100 399 -126 157 -153 158 -273 10z m232 -137 c110 -135 126 -217 20 -103 -90 97 -150 98 -232 5 -128 -146 -113 -60 21 114 90 117 82 118 191 -16z"></path> </g> </svg>